<svg width="38" height="42" viewBox="0 0 38 42" fill="none" xmlns="http://www.w3.org/2000/svg">
<path d="M35.6667 12.6667L23.1667 1.70835C22.0208 0.68344 20.5374 0.116821 19 0.116821C17.4627 0.116821 15.9792 0.68344 14.8333 1.70835L2.33335 12.6667C1.67162 13.2585 1.14356 13.9845 0.784331 14.7964C0.425106 15.6082 0.242957 16.4873 0.250014 17.375V35.5833C0.250014 37.241 0.908495 38.8307 2.0806 40.0028C3.2527 41.1749 4.84241 41.8333 6.50002 41.8333H31.5C33.1576 41.8333 34.7473 41.1749 35.9194 40.0028C37.0915 38.8307 37.75 37.241 37.75 35.5833V17.3542C37.7541 16.4699 37.5705 15.5949 37.2114 14.7868C36.8523 13.9788 36.3258 13.2562 35.6667 12.6667ZM23.1667 37.6667H14.8333V27.25C14.8333 26.6975 15.0528 26.1676 15.4435 25.7769C15.8342 25.3862 16.3641 25.1667 16.9167 25.1667H21.0833C21.6359 25.1667 22.1658 25.3862 22.5565 25.7769C22.9472 26.1676 23.1667 26.6975 23.1667 27.25V37.6667ZM33.5834 35.5833C33.5834 36.1359 33.3639 36.6658 32.9732 37.0565C32.5825 37.4472 32.0526 37.6667 31.5 37.6667H27.3333V27.25C27.3333 25.5924 26.6749 24.0027 25.5028 22.8306C24.3307 21.6585 22.741 21 21.0833 21H16.9167C15.2591 21 13.6694 21.6585 12.4973 22.8306C11.3252 24.0027 10.6667 25.5924 10.6667 27.25V37.6667H6.50002C5.94748 37.6667 5.41758 37.4472 5.02688 37.0565C4.63618 36.6658 4.41668 36.1359 4.41668 35.5833V17.3542C4.41706 17.0584 4.48042 16.766 4.60255 16.4966C4.72468 16.2272 4.90279 15.9869 5.12502 15.7917L17.625 4.85418C18.0052 4.52018 18.494 4.33598 19 4.33598C19.5061 4.33598 19.9948 4.52018 20.375 4.85418L32.875 15.7917C33.0972 15.9869 33.2753 16.2272 33.3975 16.4966C33.5196 16.766 33.583 17.0584 33.5834 17.3542V35.5833Z" fill="#F0908B"/>
</svg>
