<svg width="50" height="50" viewBox="0 0 50 50" fill="none" xmlns="http://www.w3.org/2000/svg">
<g clip-path="url(#clip0_6_4)">
<mask id="mask0_6_4" style="mask-type:luminance" maskUnits="userSpaceOnUse" x="0" y="0" width="50" height="50">
<path d="M0 0H50V50H0V0Z" fill="white"/>
</mask>
<g mask="url(#mask0_6_4)">
<path d="M48.3684 43.421C48.3684 44.8169 47.8139 46.1556 46.8269 47.1427C45.8398 48.1297 44.5011 48.6842 43.1053 48.6842H6.26316C4.86728 48.6842 3.52858 48.1297 2.54154 47.1427C1.55451 46.1556 1 44.8169 1 43.421V6.57894C1 5.18306 1.55451 3.84436 2.54154 2.85733C3.52858 1.87029 4.86728 1.31578 6.26316 1.31578H43.1053C44.5011 1.31578 45.8398 1.87029 46.8269 2.85733C47.8139 3.84436 48.3684 5.18306 48.3684 6.57894V43.421Z" fill="white"/>
<path d="M39.2656 25.375C39.2656 23.8984 38.3359 22.6406 37.0781 22.0938C37.5703 21.6016 37.8984 20.8906 37.8984 20.125C37.8984 18.5938 36.6406 17.3359 35.1094 17.3359C35 17.3359 34.8906 17.3359 34.8359 17.3359C35 16.9531 35.1094 16.5156 35.1094 16.0781C35.1094 14.5469 33.8516 13.2891 32.3203 13.2891C31.8281 13.2891 31.3906 13.3984 31.0078 13.6172C30.625 12.5234 29.5859 11.5938 28.3828 11.5938C26.8516 11.5938 25.6484 13.0156 25.5938 14.1094V33.25H25.6484C25.6484 35.2188 27.2344 36.75 29.2031 36.75C30.9531 36.75 32.375 35.4922 32.7031 33.8516C33.0312 33.9609 33.4141 34.0156 33.7969 34.0156C35.7656 34.0156 37.3516 32.4297 37.3516 30.4609C37.3516 29.8594 37.1875 29.2578 36.9141 28.7109C38.2266 28.2734 39.2656 26.9609 39.2656 25.375Z" fill="#F0908B"/>
<path d="M9.73438 25.375C9.73438 23.8984 10.6641 22.6406 11.9219 22.0938C11.4297 21.6016 11.1016 20.8906 11.1016 20.125C11.1016 18.5938 12.3594 17.3359 13.8906 17.3359C14 17.3359 14.1094 17.3359 14.1641 17.3359C14 16.9531 13.8906 16.5156 13.8906 16.0781C13.8906 14.5469 15.1484 13.2891 16.6797 13.2891C17.1719 13.2891 17.6094 13.3984 17.9922 13.6172C18.375 12.5234 19.4141 11.5938 20.6172 11.5938C22.1484 11.5938 23.3516 13.0156 23.4062 14.1094V33.25H23.3516C23.3516 35.2188 21.7656 36.75 19.7969 36.75C18.0469 36.75 16.625 35.4922 16.2969 33.8516C15.9688 33.9609 15.5859 34.0156 15.2031 34.0156C13.2344 34.0156 11.6484 32.4297 11.6484 30.4609C11.6484 29.8594 11.8125 29.2578 12.0859 28.7109C10.7734 28.2734 9.73438 26.9609 9.73438 25.375Z" fill="#F0908B"/>
<path d="M39.2656 25.375C39.2656 23.8984 38.3359 22.6406 37.0781 22.0938C37.5703 21.6016 37.8984 20.8906 37.8984 20.125C37.8984 18.5938 36.6406 17.3359 35.1094 17.3359C35 17.3359 34.8906 17.3359 34.8359 17.3359C35 16.9531 35.1094 16.5156 35.1094 16.0781C35.1094 14.5469 33.8516 13.2891 32.3203 13.2891C31.8281 13.2891 31.3906 13.3984 31.0078 13.6172C30.625 12.5234 29.5859 11.5938 28.3828 11.5938C26.8516 11.5938 25.6484 13.0156 25.5938 14.1094V33.25H25.6484C25.6484 35.2187 27.2344 36.75 29.2031 36.75C30.9531 36.75 32.375 35.4922 32.7031 33.8516C33.0313 33.9609 33.4141 34.0156 33.7969 34.0156C35.7656 34.0156 37.3516 32.4297 37.3516 30.4609C37.3516 29.8594 37.1875 29.2578 36.9141 28.7109C38.2266 28.2734 39.2656 26.9609 39.2656 25.375Z" stroke="#2C3E50" stroke-width="2" stroke-miterlimit="10" stroke-linecap="round" stroke-linejoin="round"/>
<path d="M9.73438 25.375C9.73438 23.8984 10.6641 22.6406 11.9219 22.0938C11.4297 21.6016 11.1016 20.8906 11.1016 20.125C11.1016 18.5938 12.3594 17.3359 13.8906 17.3359C14 17.3359 14.1094 17.3359 14.1641 17.3359C14 16.9531 13.8906 16.5156 13.8906 16.0781C13.8906 14.5469 15.1484 13.2891 16.6797 13.2891C17.1719 13.2891 17.6094 13.3984 17.9922 13.6172C18.375 12.5234 19.4141 11.5938 20.6172 11.5938C22.1484 11.5938 23.3516 13.0156 23.4062 14.1094V33.25H23.3516C23.3516 35.2187 21.7656 36.75 19.7969 36.75C18.0469 36.75 16.625 35.4922 16.2969 33.8516C15.9687 33.9609 15.5859 34.0156 15.2031 34.0156C13.2344 34.0156 11.6484 32.4297 11.6484 30.4609C11.6484 29.8594 11.8125 29.2578 12.0859 28.7109C10.7734 28.2734 9.73438 26.9609 9.73438 25.375Z" stroke="#2C3E50" stroke-width="2" stroke-miterlimit="10" stroke-linecap="round" stroke-linejoin="round"/>
<path d="M15.4766 26.25C15.4766 26.25 17.9922 25.8672 19.0859 28.3281C20.2891 31.0625 18.7031 33.0859 16.3516 33.8516" stroke="#2C3E50" stroke-width="2" stroke-miterlimit="10" stroke-linecap="round" stroke-linejoin="round"/>
<path d="M21 18.2656C21 18.2656 19.6328 20.4531 17.1719 19.9063C14.7109 19.3594 14.2188 17.3359 14.2188 17.3359" stroke="#2C3E50" stroke-width="2" stroke-miterlimit="10" stroke-linecap="round" stroke-linejoin="round"/>
<path d="M21 23.1875C20.9453 23.1328 20.2891 20.8359 17.4453 20.0156" stroke="#2C3E50" stroke-width="2" stroke-miterlimit="10" stroke-linecap="round" stroke-linejoin="round"/>
<path d="M30.7344 23.5156C30.7344 23.5156 30.0781 25.9219 32.1563 27.7813C33.1406 28.6563 35.1094 28.9297 36.8047 28.7109" stroke="#2C3E50" stroke-width="2" stroke-miterlimit="10" stroke-linecap="round" stroke-linejoin="round"/>
<path d="M29.9688 19.0313C29.9688 19.0313 31.4453 19.9609 32.7031 19.5781C33.9609 19.1953 34.8359 17.3359 34.8359 17.3359" stroke="#2C3E50" stroke-width="2" stroke-miterlimit="10" stroke-linecap="round" stroke-linejoin="round"/>
<path d="M28.875 31.0625C28.875 31.0625 29.5859 28.2734 32.8672 28.2734" stroke="#2C3E50" stroke-width="2" stroke-miterlimit="10" stroke-linecap="round" stroke-linejoin="round"/>
</g>
</g>
<rect x="0.5" y="0.5" width="49" height="49" rx="7.5" stroke="black" stroke-opacity="0.38"/>
<defs>
<clipPath id="clip0_6_4">
<rect width="50" height="50" rx="8" fill="white"/>
</clipPath>
</defs>
</svg>
