<svg width="42" height="42" viewBox="0 0 42 42" fill="none" xmlns="http://www.w3.org/2000/svg">
<path d="M21 0.166626C16.9593 0.174303 13.0081 1.35686 9.62756 3.57025C6.24703 5.78364 3.58312 8.93233 1.96029 12.6328C0.337472 16.3333 -0.174216 20.4258 0.487555 24.4119C1.14933 28.3981 2.956 32.1057 5.6875 35.0833C7.63838 37.198 10.0061 38.8857 12.6415 40.04C15.2769 41.1943 18.1229 41.7902 21 41.7902C23.8771 41.7902 26.7231 41.1943 29.3585 40.04C31.9939 38.8857 34.3616 37.198 36.3125 35.0833C39.044 32.1057 40.8507 28.3981 41.5125 24.4119C42.1742 20.4258 41.6625 16.3333 40.0397 12.6328C38.4169 8.93233 35.753 5.78364 32.3724 3.57025C28.9919 1.35686 25.0407 0.174303 21 0.166626ZM21 37.6666C16.6843 37.6601 12.5394 35.9797 9.4375 32.9791C10.3793 30.6865 11.9813 28.7256 14.0401 27.3456C16.0989 25.9655 18.5215 25.2287 21 25.2287C23.4785 25.2287 25.9011 25.9655 27.9599 27.3456C30.0187 28.7256 31.6207 30.6865 32.5625 32.9791C29.4606 35.9797 25.3157 37.6601 21 37.6666ZM16.8333 16.8333C16.8333 16.0092 17.0777 15.2036 17.5355 14.5184C17.9934 13.8332 18.6441 13.2992 19.4055 12.9838C20.1668 12.6684 21.0046 12.5859 21.8129 12.7467C22.6211 12.9075 23.3636 13.3043 23.9463 13.887C24.529 14.4697 24.9258 15.2122 25.0866 16.0204C25.2474 16.8287 25.1649 17.6664 24.8495 18.4278C24.5341 19.1892 24.0001 19.8399 23.3149 20.2977C22.6297 20.7556 21.8241 21 21 21C19.8949 21 18.8351 20.561 18.0537 19.7796C17.2723 18.9982 16.8333 17.9384 16.8333 16.8333ZM35.3958 29.3333C33.5344 26.1495 30.6696 23.6729 27.25 22.2916C28.3108 21.0888 29.0019 19.6055 29.2406 18.0196C29.4792 16.4337 29.2552 14.8127 28.5953 13.351C27.9355 11.8893 26.8679 10.649 25.5206 9.77905C24.1734 8.90907 22.6037 8.44631 21 8.44631C19.3963 8.44631 17.8266 8.90907 16.4794 9.77905C15.1321 10.649 14.0645 11.8893 13.4047 13.351C12.7449 14.8127 12.5208 16.4337 12.7594 18.0196C12.9981 19.6055 13.6892 21.0888 14.75 22.2916C11.3304 23.6729 8.46556 26.1495 6.60417 29.3333C5.12072 26.8064 4.33692 23.9301 4.33333 21C4.33333 16.5797 6.08928 12.3405 9.21489 9.21485C12.3405 6.08924 16.5797 4.33329 21 4.33329C25.4203 4.33329 29.6595 6.08924 32.7851 9.21485C35.9107 12.3405 37.6667 16.5797 37.6667 21C37.6631 23.9301 36.8793 26.8064 35.3958 29.3333Z" fill="black"/>
</svg>
